<?xml version="1.0" encoding="utf-8"?>
<svg xmlns="http://www.w3.org/2000/svg" xmlns:xlink="http://www.w3.org/1999/xlink" style="margin: auto; background: rgba(255, 255, 255, 0); display: block; shape-rendering: auto;" width="177px" height="177px" viewBox="0 0 100 100" preserveAspectRatio="xMidYMid">
<g transform="translate(50 50)">
<g transform="rotate(0.972971)">
<animateTransform attributeName="transform" type="rotate" values="0;32.72727272727273" keyTimes="0;1" dur="0.28328611898017s" repeatCount="indefinite"></animateTransform><path d="M23.664319132398465 -4 L31.664319132398465 -4 L31.664319132398465 4 L23.664319132398465 4 A24 24 0 0 1 22.07025534199711 9.428882708945318 L22.07025534199711 9.428882708945318 L28.80028360464656 13.754009248590098 L24.475157065001778 20.48403751123955 L17.74512880235233 16.158910971594768 A24 24 0 0 1 13.469041421484171 19.864161779102172 L13.469041421484171 19.864161779102172 L16.792361525499263 27.14121774193832 L9.515305562663118 30.464537845953412 L6.191985458648025 23.187481883117265 A24 24 0 0 1 0.5915020173490388 23.99270983785433 L0.5915020173490388 23.99270983785433 L-0.547016688837241 31.911281372901794 L-8.465588223884701 30.772762666715515 L-7.327069517698421 22.854191131668053 A24 24 0 0 1 -12.473835097940876 20.50374204747461 L-12.473835097940876 20.50374204747461 L-17.712720969503156 26.549738642308675 L-23.758717564337218 21.310852770746397 L-18.51983169277494 15.26485617591233 A24 24 0 0 1 -21.578817705541727 10.50498102954017 L-21.578817705541727 10.50498102954017 L-29.254761494457707 12.758841484271606 L-31.508621949189145 5.08289769535563 L-23.832678160273165 2.8290372406241926 A24 24 0 0 1 -23.832678160273165 -2.829037240624187 L-23.832678160273165 -2.829037240624187 L-31.508621949189145 -5.082897695355622 L-29.25476149445771 -12.7588414842716 L-21.57881770554173 -10.504981029540165 A24 24 0 0 1 -18.519831692774947 -15.264856175912328 L-18.519831692774947 -15.264856175912328 L-23.75871756433723 -21.310852770746394 L-17.712720969503163 -26.549738642308675 L-12.473835097940881 -20.50374204747461 A24 24 0 0 1 -7.327069517698437 -22.854191131668046 L-7.327069517698437 -22.854191131668046 L-8.465588223884719 -30.772762666715508 L-0.5470166888372382 -31.911281372901794 L0.5915020173490436 -23.99270983785433 A24 24 0 0 1 6.191985458648004 -23.18748188311727 L6.191985458648004 -23.18748188311727 L9.515305562663093 -30.46453784595342 L16.79236152549926 -27.141217741938323 L13.469041421484171 -19.864161779102176 A24 24 0 0 1 17.745128802352326 -16.158910971594775 L17.745128802352326 -16.158910971594775 L24.475157065001774 -20.484037511239556 L28.800283604646566 -13.754009248590087 L22.070255341997118 -9.428882708945308 A24 24 0 0 1 23.66431913239846 -4.000000000000016 M0 -15A15 15 0 1 0 0 15 A15 15 0 1 0 0 -15" fill="#a15719"></path></g></g>
<!-- [ldio] generated by https://loading.io/ --></svg>